<?xml version="1.0" encoding="utf-8"?>
<!-- Generator: Adobe Illustrator 24.1.2, SVG Export Plug-In . SVG Version: 6.00 Build 0)  -->
<svg version="1.1" id="Layer_1" xmlns="http://www.w3.org/2000/svg" xmlns:xlink="http://www.w3.org/1999/xlink" x="0px" y="0px"
	 viewBox="0 0 7096 925" style="enable-background:new 0 0 7096 925;" xml:space="preserve">
<style type="text/css">
	.st0{fill:#780AFF;}
	.st1{fill:url(#SVGID_1_);}
	.st2{fill:url(#SVGID_2_);}
	.st3{fill:url(#SVGID_3_);}
	.st4{fill:url(#SVGID_4_);}
	.st5{fill:#3F3C4A;}
	.st6{font-family:'Inter-Medium';}
	.st7{font-size:646.0506px;}
</style>
<path class="st0" d="M186.2,658.9l-84.7,199.8l-30.9-63.4l-46,61.3c1.2-76.4,22.1-183.7,85-266C129,610.2,154.9,633.8,186.2,658.9z"
	/>
<path class="st0" d="M231.2,552.6l-9.6,22.7l-6.3,14.8l-21,49.5c-29.6-24-54-46.3-72.1-64.7c11.2-12.9,23.5-25,37.1-36.2
	c15.3,2,31.6,4.2,48.7,6.6c4.8,0.6,9.6,1.3,14.5,2L231.2,552.6z"/>
<path class="st0" d="M212,679c29.9,22.7,63.7,46,100.7,68.6c-3.1,66.3-21.4,129.9-41.8,177.4l-14.8-71.8L203.7,900L212,679z"/>
<path class="st0" d="M313.1,724.1v0.3c-1.6-1-3.2-2-4.8-3l0,0c-35.1-22.2-67.2-45.1-95.4-67l2.4-64.3l0.5-13.8l5.8-1l49.6-8.8
	C300.9,615,312.5,669.9,313.1,724.1z"/>
<linearGradient id="SVGID_1_" gradientUnits="userSpaceOnUse" x1="816.5769" y1="503.8861" x2="349.6454" y2="893.3854" gradientTransform="matrix(1 0 0 -1 0 882)">
	<stop  offset="0" style="stop-color:#FF0099"/>
	<stop  offset="1" style="stop-color:#FF7294"/>
</linearGradient>
<path class="st1" d="M184.7,253c-42.7-8.2-79.3-15.3-109.7-19.5c91.6-277.9,422.6-181.2,527.3-67.7c0,0,43.8-94.5,133.9-138.8
	c72.1-35.5,236.5-62.1,309.1,99.8c-27.7,33.8-68.3,67.4-103.8,90.2c-58.5,37.7-155.7,83.3-286.3,86.7
	C472.5,308.5,306.2,276.4,184.7,253z"/>
<linearGradient id="SVGID_2_" gradientUnits="userSpaceOnUse" x1="885.5566" y1="162.6081" x2="386.7469" y2="578.6993" gradientTransform="matrix(1 0 0 -1 0 882)">
	<stop  offset="0" style="stop-color:#FF0099"/>
	<stop  offset="1" style="stop-color:#FF7294"/>
</linearGradient>
<path class="st2" d="M1077.3,382.2c-29.9,266.7-251.1,398-383.9,514.7c-0.3,0.3-0.7,0.4-1.1,0.2c-10.4-4.1-161-63.9-316.1-140.2
	c-21.9-10.8-43-21.7-63.1-32.8c-1.6-0.9-3.2-1.8-4.8-2.6l0,0c-35.1-22.2-67.2-45.1-95.4-67c-6.4-5-12.6-9.9-18.6-14.8
	c-29.6-24-54-46.3-72.1-64.7c-2.8-2.9-5.5-5.7-8-8.3l0,0c-8.7-11.3-16.5-23-23.6-35.1c19.9,1.3,43,3.9,68.7,7.3
	c15.3,2,31.6,4.2,48.7,6.6c4.8,0.6,9.6,1.3,14.5,2c95.5,13.1,219.3,29.2,365.5,29.2c20.6,0,41.7-0.3,63.2-1
	c135.2-4.4,247-59.5,317-105C1013.4,441.2,1050.3,410.1,1077.3,382.2z"/>
<linearGradient id="SVGID_3_" gradientUnits="userSpaceOnUse" x1="865.904" y1="303.1971" x2="305.6653" y2="770.5304" gradientTransform="matrix(1 0 0 -1 0 882)">
	<stop  offset="0" style="stop-color:#FF0099"/>
	<stop  offset="1" style="stop-color:#FF7294"/>
</linearGradient>
<path class="st3" d="M1079.9,349.7L1079.9,349.7c-26.8,31.3-69.5,69.7-122.5,104.1c-46.9,30.5-113.1,65.4-192.6,85.5h-0.1l0,0
	c-35.5,9-73.7,15-114,16.3c-10.4,0.3-20.7,0.6-30.8,0.8h-0.1c-166.3,2.7-305.6-16.5-408.8-30.7c-53.8-7.4-97.2-13.4-131.2-14.7
	c-34.4-71-40.7-154.7-10.6-258c31,4.2,69,11.5,111.9,19.8c114,22,267.4,51.5,437.5,51.5c12.4,0,24.8-0.1,37.4-0.5
	c82.7-2.2,152.5-20.7,208.2-43.7c35.3-14.6,64.8-31,88.4-46.2c3.2-2.1,6.4-4.2,9.5-6.3c39.6-26.7,70.1-54.8,91.9-79.9
	c13.5,37,22.7,82.5,25.9,138.1C1080.9,307.9,1081,329.2,1079.9,349.7z"/>
<linearGradient id="SVGID_4_" gradientUnits="userSpaceOnUse" x1="54.6537" y1="557.8734" x2="1123.7609" y2="537.0471" gradientTransform="matrix(1 0 0 -1 0 882)">
	<stop  offset="0" style="stop-color:#7203FF"/>
	<stop  offset="1" style="stop-color:#C52BFF"/>
</linearGradient>
<path class="st4" d="M1096.8,264.8c7.5,20.3,8.6,36.6,7.1,51.5c-5.2,9.5-13.3,20.9-24.1,33.4l0,0c-26.8,31.3-69.5,69.6-122.5,104.1
	c-46.9,30.5-113.1,65.4-192.6,85.5h-0.1l0,0c-42.5,8.1-90.6,14-144.9,17h-0.1C453.3,559,314,539.8,210.8,525.6
	c-53.8-7.4-97.2-13.4-131.2-14.7c0,0.1,0.1,0.1,0.1,0.2c-0.4-0.1-0.7-0.1-1.1-0.2h-0.1c-3.2-0.6-6.5-1.2-9.8-1.8
	c-21.5,0.4-58.5-28.5-17.5-87c-19.4-3.7-39.8-5.2-21.9-76.1c-41.9-63-36.2-89.8,2-96.7c11,0.4,23.6,1.7,37.6,3.6
	c31,4.2,69,11.5,111.9,19.8c114,22,267.4,51.5,437.5,51.5c12.4,0,24.8-0.1,37.4-0.5c82.7-2.2,152.5-20.7,208.2-43.7
	c34.6-13.4,67.5-30.6,97.9-52.4c39.6-26.7,70.1-54.8,91.9-79.9c8-9.2,14.8-18,20.4-26.2c14.6,8.5,20.4,22.1,13.8,40.8
	C1122.6,200.9,1106.5,241.8,1096.8,264.8z"/>
<text transform="matrix(1 0 0 1 1343.9912 678.4199)" class="st5 st6 st7">Quarantine is Blind</text>
</svg>
